<svg width="63" height="45" viewBox="0 0 63 45" fill="none" xmlns="http://www.w3.org/2000/svg">
<path d="M23.3691 3.00049L13.0026 3.00049L0.000483462 36.3054L10.367 36.3054L23.3691 3.00049Z" fill="#0E121B"/>
<path d="M52.7305 3.00049L42.3639 3.00049L29.3618 36.3054L39.7284 36.3054L52.7305 3.00049Z" fill="#0E121B"/>
<path d="M34.623 11.2969L24.2565 11.2969L11.2544 44.6018L21.6209 44.6018L34.623 11.2969Z" fill="#0E121B"/>
<path d="M57.4402 6.53293V2.99214H59.2106C59.3833 2.99214 59.556 3.03532 59.7287 3.12169C59.9046 3.20485 60.0502 3.33279 60.1653 3.50551C60.2837 3.67503 60.3428 3.88614 60.3428 4.13882C60.3428 4.39471 60.2821 4.61221 60.1605 4.79133C60.039 4.97044 59.8871 5.10638 59.7047 5.19914C59.5224 5.2919 59.3401 5.33828 59.1578 5.33828H57.9008V4.72895H58.9371C59.0522 4.72895 59.1658 4.67938 59.2777 4.58022C59.3929 4.48107 59.4505 4.33393 59.4505 4.13882C59.4505 3.93412 59.3929 3.79338 59.2777 3.71661C59.1658 3.63985 59.057 3.60147 58.9515 3.60147H58.2654V6.53293H57.4402ZM59.6184 4.87289L60.4772 6.53293H59.5704L58.7452 4.87289H59.6184ZM58.7979 8.64397C58.267 8.64397 57.7696 8.54482 57.3058 8.34651C56.842 8.1482 56.4342 7.87312 56.0824 7.52128C55.7305 7.16944 55.4555 6.76163 55.2572 6.29784C55.0589 5.83405 54.9597 5.33668 54.9597 4.80572C54.9597 4.27476 55.0589 3.77739 55.2572 3.3136C55.4555 2.84981 55.7305 2.44199 56.0824 2.09015C56.4342 1.73831 56.842 1.46324 57.3058 1.26493C57.7696 1.06662 58.267 0.967465 58.7979 0.967465C59.3289 0.967465 59.8263 1.06662 60.2901 1.26493C60.7539 1.46324 61.1617 1.73831 61.5135 2.09015C61.8654 2.44199 62.1404 2.84981 62.3387 3.3136C62.537 3.77739 62.6362 4.27476 62.6362 4.80572C62.6362 5.33668 62.537 5.83405 62.3387 6.29784C62.1404 6.76163 61.8654 7.16944 61.5135 7.52128C61.1617 7.87312 60.7539 8.1482 60.2901 8.34651C59.8263 8.54482 59.3289 8.64397 58.7979 8.64397ZM58.7979 7.694C59.3289 7.694 59.8119 7.56446 60.2469 7.30538C60.6851 7.0431 61.0337 6.69446 61.2928 6.25946C61.5519 5.82126 61.6814 5.33668 61.6814 4.80572C61.6814 4.27476 61.5519 3.79178 61.2928 3.35678C61.0337 2.91858 60.6851 2.56994 60.2469 2.31085C59.8119 2.04857 59.3289 1.91743 58.7979 1.91743C58.267 1.91743 57.7824 2.04857 57.3442 2.31085C56.906 2.56994 56.5574 2.91858 56.2983 3.35678C56.0392 3.79178 55.9097 4.27476 55.9097 4.80572C55.9097 5.33668 56.0392 5.82126 56.2983 6.25946C56.5574 6.69446 56.906 7.0431 57.3442 7.30538C57.7824 7.56446 58.267 7.694 58.7979 7.694Z" fill="#0E121B"/>
</svg>
