<svg width="32" height="32" viewBox="0 0 32 32" fill="none" xmlns="http://www.w3.org/2000/svg">
<path d="M2 12.1333C2 8.58633 2 6.81283 2.69029 5.45806C3.29749 4.26637 4.26637 3.29749 5.45806 2.69029C6.81283 2 8.58633 2 12.1333 2H19.8667C23.4137 2 25.1872 2 26.5419 2.69029C27.7336 3.29749 28.7025 4.26637 29.3097 5.45806C30 6.81283 30 8.58633 30 12.1333V19.8667C30 23.4137 30 25.1872 29.3097 26.5419C28.7025 27.7336 27.7336 28.7025 26.5419 29.3097C25.1872 30 23.4137 30 19.8667 30H12.1333C8.58633 30 6.81283 30 5.45806 29.3097C4.26637 28.7025 3.29749 27.7336 2.69029 26.5419C2 25.1872 2 23.4137 2 19.8667V12.1333Z" fill="#330000"/>
<path d="M15.5667 19.5963H11.2277L10.3449 22.409C10.3204 22.5135 10.2242 22.5875 10.1195 22.5823H7.92189C7.79656 22.5823 7.75273 22.5117 7.7904 22.3704L11.547 11.2738C11.5846 11.1582 11.6222 11.0266 11.6598 10.8789C11.7089 10.6218 11.7341 10.3606 11.7349 10.0987C11.7241 10.0213 11.7922 9.95294 11.8664 9.96378H14.8529C14.9404 9.96378 14.9905 9.9959 15.0032 10.0601L19.267 22.3897C19.3046 22.5182 19.267 22.5824 19.1543 22.5823H16.7125C16.6268 22.5921 16.545 22.5334 16.5246 22.4475L15.5667 19.5963ZM11.9039 17.1689H14.8717C14.3841 15.5027 13.8338 13.8584 13.3879 12.1793C12.9067 13.8613 12.3817 15.5365 11.9039 17.1689Z" fill="#FF9A00"/>
<path d="M21.8025 12.0058C21.611 12.0137 21.4199 11.98 21.2419 11.907C21.0639 11.834 20.9029 11.7232 20.7695 11.582C20.6364 11.4346 20.5331 11.2618 20.4654 11.0733C20.3977 10.8849 20.3669 10.6846 20.375 10.4839C20.3681 10.2852 20.4023 10.0873 20.4751 9.90305C20.5479 9.71881 20.6578 9.5524 20.7976 9.41468C20.936 9.27839 21.0995 9.17161 21.2784 9.10052C21.4573 9.02942 21.6482 8.99543 21.8401 9.00049C22.2909 9.00049 22.6447 9.13856 22.9014 9.41468C23.0309 9.55818 23.1316 9.72648 23.1977 9.90995C23.2638 10.0934 23.2939 10.2885 23.2864 10.4839C23.2942 10.6853 23.2625 10.8864 23.1932 11.075C23.1238 11.2636 23.0182 11.436 22.8826 11.582C22.7408 11.7253 22.5717 11.8369 22.3858 11.9099C22.1999 11.9828 22.0013 12.0155 21.8025 12.0058ZM20.5064 22.3896V13.181C20.5064 13.0654 20.5564 13.0076 20.6567 13.0076H22.9671C23.0672 13.0076 23.1173 13.0654 23.1174 13.181V22.3896C23.1174 22.5182 23.0673 22.5824 22.9671 22.5823H20.6755C20.5628 22.5823 20.5065 22.5181 20.5064 22.3896Z" fill="#FF9A00"/>
</svg>
